<svg width="80" height="50" viewBox="0 0 80 50" fill="none" xmlns="http://www.w3.org/2000/svg">
<path d="M79.3512 23.5858L48.4762 0.331816C47.9841 -0.0431844 47.32 -0.105684 46.7692 0.171656C46.2146 0.445096 45.863 1.0115 45.863 1.62866V12.5587L1.625 12.5626C0.73047 12.5626 0.0039 13.2891 0 14.1837V35.5897C0.003906 36.4842 0.72656 37.2108 1.625 37.2108H45.863V48.1448C45.8669 48.762 46.2185 49.3284 46.7732 49.6057C47.3279 49.8713 47.9841 49.8088 48.4763 49.4416L79.3513 26.1836C79.7614 25.875 79.9997 25.3945 79.9997 24.8828C79.9997 24.3711 79.7614 23.8906 79.3513 23.582L79.3512 23.5858Z" fill="black"/>
</svg>
